<?xml version="1.0" encoding="iso-8859-1"?>
<!-- Generator: Adobe Illustrator 17.1.0, SVG Export Plug-In . SVG Version: 6.00 Build 0)  -->
<!DOCTYPE svg PUBLIC "-//W3C//DTD SVG 1.1//EN" "http://www.w3.org/Graphics/SVG/1.1/DTD/svg11.dtd">
<svg version="1.1" id="Capa_1" xmlns="http://www.w3.org/2000/svg" xmlns:xlink="http://www.w3.org/1999/xlink" x="0px" y="0px"
	 viewBox="0 0 475.8 475.8" style="enable-background:new 0 0 475.8 475.8;" xml:space="preserve">
<path d="M419.396,236.797h-65.148h-0.231c12.167-9.323,21.397-22.484,25.687-37.97l41.329-149.172
	c0.517-1.866,0.292-3.86-0.627-5.564L398.736,3.938C397.427,1.512,394.893,0,392.136,0H209.464h-14.091H72.739
	C46.565,0,25.271,21.294,25.271,47.467c0,0.034,0.005,0.067,0.005,0.102c0.002,0.114,0.01,0.227,0.017,0.341
	c0.009,0.153,0.018,0.305,0.036,0.456c0.004,0.034,0.004,0.067,0.008,0.101l32.727,243.433v176.4c0,4.142,3.358,7.5,7.5,7.5h146.65
	h50.112h158.116c0.007,0,0.013,0,0.02,0c4.142,0,7.5-3.358,7.5-7.5c0-0.771-0.117-1.516-0.333-2.217L412.8,401.045
	c-0.778-3.412-3.813-5.833-7.312-5.833h-12.229c12.093-10.767,19.729-26.437,19.729-43.864v-55.812
	c0-17.359-7.575-32.977-19.586-43.74h25.993c8.896,0,16.133,7.237,16.133,16.133v108.053c0,4.142,3.358,7.5,7.5,7.5
	s7.5-3.358,7.5-7.5V267.93C450.528,250.763,436.562,236.797,419.396,236.797z M401.135,39.967H262.328h-45.363V15h170.696
	L401.135,39.967z M72.739,15h122.635h6.591v24.967H41.146C44.54,25.669,57.417,15,72.739,15z M41.347,54.967h159.332l26.524,99.839
	c0.892,3.358,3.926,5.576,7.244,5.576c0.637,0,1.286-0.082,1.931-0.253c4.003-1.063,6.386-5.171,5.323-9.174l-25.501-95.988h46.129
	h141.668l-38.747,139.855c-6.836,24.674-29.493,41.907-55.097,41.907s-48.26-17.233-55.097-41.907
	c-1.106-3.992-5.238-6.329-9.23-5.225c-3.992,1.106-6.331,5.238-5.225,9.23c2.405,8.681,6.365,16.63,11.521,23.585
	c-20.066,13.888-32.294,36.78-32.441,61.486H72.125L41.347,54.967z M73.065,298.897h146.606v52.451v50.519L206.233,460.8H73.065
	V298.897z M411.041,460.8H262.328h-40.709l11.536-50.587h166.351L411.041,460.8z M397.988,295.537v55.812
	c0,24.119-19.622,43.74-43.74,43.74h-75.835c-24.119,0-43.74-19.622-43.74-43.74v-55.812c0-24.118,19.622-43.74,43.74-43.74h37.917
	h37.918C378.366,251.797,397.988,271.418,397.988,295.537z M380.833,342.438v7.5c0,4.142-3.358,7.5-7.5,7.5s-7.5-3.358-7.5-7.5v-7.5
	c0-4.142,3.358-7.5,7.5-7.5S380.833,338.296,380.833,342.438z M339.572,270.274c0-4.142,3.358-7.5,7.5-7.5h2.754
	c17.097,0,31.007,13.909,31.007,31.006v21.349c0,4.142-3.358,7.5-7.5,7.5s-7.5-3.358-7.5-7.5v-21.349
	c0-8.826-7.181-16.006-16.007-16.006h-2.754C342.93,277.774,339.572,274.417,339.572,270.274z M140.056,339.493h-35.292
	c-4.142,0-7.5,3.358-7.5,7.5v50.724c0,4.142,3.358,7.5,7.5,7.5h35.292c4.142,0,7.5-3.358,7.5-7.5v-50.724
	C147.556,342.851,144.198,339.493,140.056,339.493z M132.556,390.217h-20.292v-35.724h20.292V390.217z"/>
<g>
</g>
<g>
</g>
<g>
</g>
<g>
</g>
<g>
</g>
<g>
</g>
<g>
</g>
<g>
</g>
<g>
</g>
<g>
</g>
<g>
</g>
<g>
</g>
<g>
</g>
<g>
</g>
<g>
</g>
</svg>
