<?xml version="1.0" encoding="iso-8859-1"?>
<!-- Generator: Adobe Illustrator 17.1.0, SVG Export Plug-In . SVG Version: 6.00 Build 0)  -->
<!DOCTYPE svg PUBLIC "-//W3C//DTD SVG 1.1//EN" "http://www.w3.org/Graphics/SVG/1.1/DTD/svg11.dtd">
<svg version="1.1" id="Capa_1" xmlns="http://www.w3.org/2000/svg" xmlns:xlink="http://www.w3.org/1999/xlink" x="0px" y="0px"
	 viewBox="0 0 346.985 346.985" style="enable-background:new 0 0 346.985 346.985;" xml:space="preserve">
<path d="M148.939,287.908c0,4.418-3.582,8-8,8h-1.33c-4.418,0-8-3.582-8-8s3.582-8,8-8h1.33
	C145.357,279.908,148.939,283.49,148.939,287.908z M157.549,243.405h-1.33c-4.418,0-8,3.582-8,8s3.582,8,8,8h1.33
	c4.418,0,8-3.582,8-8S161.967,243.405,157.549,243.405z M174.16,279.908h-1.33c-4.418,0-8,3.582-8,8s3.582,8,8,8h1.33
	c4.418,0,8-3.582,8-8S178.578,279.908,174.16,279.908z M207.379,279.908h-1.329c-4.418,0-8,3.582-8,8s3.582,8,8,8h1.329
	c4.418,0,8-3.582,8-8S211.797,279.908,207.379,279.908z M297.693,8v330.984c0,4.418-3.582,8-8,8h-232.4c-4.418,0-8-3.582-8-8V8
	c0-2.949,1.623-5.659,4.223-7.052c2.6-1.392,5.753-1.242,8.21,0.392l24.616,16.384L110.962,1.34c2.684-1.787,6.179-1.787,8.864,0
	l24.616,16.384L169.059,1.34c2.686-1.785,6.181-1.787,8.864,0l24.622,16.384L227.16,1.34c2.686-1.785,6.18-1.787,8.865,0
	l24.616,16.384L285.26,1.34c2.455-1.634,5.609-1.784,8.21-0.392C296.07,2.341,297.693,5.051,297.693,8z M281.693,68.104h-216.4
	v262.881h216.4V68.104z M281.693,22.934l-16.618,11.06c-2.686,1.787-6.18,1.787-8.865,0l-24.616-16.383l-24.614,16.383
	c-2.686,1.785-6.181,1.787-8.864,0L173.491,17.61l-24.616,16.384c-2.686,1.787-6.18,1.787-8.865,0L115.394,17.61L90.773,33.994
	c-2.684,1.787-6.179,1.787-8.864,0L65.292,22.935v29.169h216.4V22.934z M128.703,168.133v-14.716
	c0-24.69,20.083-44.778,44.771-44.788c0.019,0,0.036,0,0.055,0c24.682,0.02,44.753,20.104,44.753,44.788v14.716
	c0,24.696-20.093,44.789-44.791,44.789C148.795,212.922,128.703,192.83,128.703,168.133z M176.917,196.719
	c14.268-1.698,25.365-13.87,25.365-28.586v-14.716c0-10.283-5.421-19.325-13.556-24.418c2.486,12.756-1.227,27.101-8.828,36.587
	C173.279,173.845,171.023,188.303,176.917,196.719z M144.703,168.133c0,10.247,5.381,19.261,13.466,24.364
	c-2.485-12.767,1.378-27.104,9.244-36.917c7.017-8.757,7.97-22.918,2.636-30.746c-14.257,1.706-25.346,13.874-25.346,28.583V168.133
	z M190.77,243.405h-1.33c-4.418,0-8,3.582-8,8s3.582,8,8,8h1.33c4.418,0,8-3.582,8-8S195.188,243.405,190.77,243.405z"/>
<g>
</g>
<g>
</g>
<g>
</g>
<g>
</g>
<g>
</g>
<g>
</g>
<g>
</g>
<g>
</g>
<g>
</g>
<g>
</g>
<g>
</g>
<g>
</g>
<g>
</g>
<g>
</g>
<g>
</g>
</svg>
