<?xml version='1.0' encoding='iso-8859-1'?>
<svg version="1.1" xmlns="http://www.w3.org/2000/svg" viewBox="0 0 470 470" xmlns:xlink="http://www.w3.org/1999/xlink" enable-background="new 0 0 470 470">
  <g>
    <path d="m87.5,358.582h40.632c31.729,32.271 73.988,50 119.367,50 92.359,0 167.5-75.141 167.5-167.5v-80c0-4.143-3.357-7.5-7.5-7.5h-320c-4.143,0-7.5,3.357-7.5,7.5v22.814c-20.545,1.732-39.627,10.567-54.372,25.313-16.525,16.527-25.627,38.501-25.627,61.873s9.102,45.345 25.629,61.872c16.527,16.526 38.5,25.628 61.871,25.628zm-51.266-138.766c13.691-13.693 31.897-21.234 51.265-21.234 4.143,0 7.5-3.357 7.5-7.5v-22.5h305v72.5c0,84.089-68.411,152.5-152.5,152.5-42.304,0-81.631-16.925-110.737-47.657-1.416-1.496-3.386-2.343-5.445-2.343h-43.817c-19.364,0-37.57-7.541-51.265-21.235-13.694-13.694-21.235-31.9-21.235-51.265 0-19.366 7.541-37.572 21.234-51.266z"/>
    <path d="m87.5,328.582h21.409c2.681,0 5.157-1.431 6.497-3.753 1.339-2.322 1.337-5.183-0.005-7.503-13.348-23.073-20.402-49.438-20.402-76.244v-20c0-4.143-3.357-7.5-7.5-7.5-15.359,0-29.799,5.981-40.658,16.841-10.86,10.86-16.841,25.3-16.841,40.659 0,15.358 5.981,29.798 16.842,40.659 10.86,10.86 25.3,16.841 40.658,16.841zm-30.052-87.553c6.229-6.229 14.053-10.287 22.551-11.792v11.845c0,25.169 5.665,49.986 16.473,72.5h-8.972c-11.352,0-22.024-4.421-30.051-12.448-8.028-8.028-12.449-18.7-12.449-30.052 0-11.353 4.421-22.025 12.448-30.053z"/>
    <path d="m247.498,378.582c31.291,0 60.795-10.287 85.324-29.75 3.244-2.574 3.788-7.292 1.213-10.537-2.574-3.244-7.292-3.787-10.537-1.213-21.849,17.336-48.13,26.5-76,26.5-67.547,0-122.5-54.953-122.5-122.5l.001-42.204c9.815,0.83 15.565,3.307 22.03,6.092 8.282,3.568 17.67,7.612 35.466,7.612 17.797,0 27.185-4.044 35.467-7.612 7.958-3.428 14.829-6.388 29.532-6.388 14.704,0 21.576,2.96 29.534,6.388 8.282,3.568 17.671,7.612 35.468,7.612s27.185-4.044 35.468-7.611c6.467-2.786 12.217-5.263 22.035-6.093l-.001,42.204c0,27.871-9.164,54.151-26.5,76-2.575,3.245-2.031,7.963 1.213,10.537 3.243,2.575 7.961,2.031 10.537-1.213 19.463-24.528 29.75-54.033 29.75-85.324l.001-50c0-1.989-0.79-3.896-2.196-5.304-1.407-1.406-3.314-2.196-5.304-2.196-17.798,0-27.186,4.044-35.469,7.612-7.958,3.428-14.83,6.388-29.534,6.388s-21.576-2.96-29.534-6.388c-8.282-3.568-17.671-7.612-35.468-7.612-17.796,0-27.184,4.044-35.466,7.612-7.958,3.428-14.83,6.388-29.533,6.388-14.702,0-21.574-2.96-29.53-6.388-8.282-3.568-17.67-7.612-35.466-7.612-4.142,0-7.5,3.357-7.5,7.5l-.001,50c-9.9476e-14,75.817 61.683,137.5 137.5,137.5z"/>
    <path d="m462.5,419.932h-430c-4.143,0-7.5,3.357-7.5,7.5s3.357,7.5 7.5,7.5h4.342l4.326,15.138c3.182,11.138 14.748,19.862 26.332,19.862h360c11.584,0 23.15-8.725 26.333-19.862l4.325-15.138h4.342c4.143,0 7.5-3.357 7.5-7.5s-3.357-7.5-7.5-7.5zm-23.09,26.016c-1.344,4.701-7.021,8.983-11.91,8.983h-360c-4.89,0-10.566-4.282-11.909-8.983l-3.147-11.017h390.114l-3.148,11.017z"/>
    <path d="m207.157,109.667c18.104,18.104 41.426,28.913 62.384,28.915 13.742,0 25.536-4.532 34.11-13.105 11.155-11.156 15.4-27.609 11.954-46.33-3.259-17.701-13.12-35.517-27.766-50.163-18.106-18.105-41.428-28.915-62.385-28.915-13.74,0-25.534,4.531-34.107,13.104-11.157,11.158-15.402,27.611-11.957,46.332 3.259,17.7 13.121,35.516 27.767,50.162zm70.075-70.076c12.519,12.518 20.907,27.53 23.621,42.271 1.928,10.471 0.76,19.771-3.257,26.952l-48.833-48.832c-2.93-2.928-7.678-2.928-10.607,0-2.929,2.93-2.929,7.678 0,10.607l48.839,48.838c-4.897,2.734-10.808,4.155-17.448,4.155-17.072-0.002-36.43-9.169-51.783-24.522-12.519-12.518-20.907-27.53-23.62-42.271-1.928-10.471-0.76-19.771 3.257-26.954l19.543,19.543c1.465,1.464 3.385,2.196 5.304,2.196s3.839-0.732 5.304-2.196c2.929-2.93 2.929-7.678 0-10.607l-19.547-19.547c4.898-2.734 10.81-4.154 17.452-4.154 17.064-0.002 36.421,9.165 51.775,24.521z"/>
  </g>
</svg>
