<?xml version="1.0" encoding="iso-8859-1"?>
<!-- Generator: Adobe Illustrator 19.0.0, SVG Export Plug-In . SVG Version: 6.00 Build 0)  -->
<svg version="1.1" id="Capa_1" xmlns="http://www.w3.org/2000/svg" xmlns:xlink="http://www.w3.org/1999/xlink" x="0px" y="0px"
	 viewBox="0 0 463 463" style="enable-background:new 0 0 463 463;" xml:space="preserve">
<g>
	<path d="M207.5,111c10.419,0,19.903-4.062,26.968-10.677c0.387-0.264,0.757-0.564,1.1-0.909c0.338-0.34,0.633-0.707,0.892-1.09
		C242.995,91.274,247,81.848,247,71.5c0-21.78-17.72-39.5-39.5-39.5c-10.418,0-19.901,4.061-26.966,10.675
		c-0.388,0.265-0.759,0.566-1.102,0.912c-0.338,0.34-0.633,0.707-0.892,1.09C172.005,51.726,168,61.152,168,71.5
		C168,93.28,185.72,111,207.5,111z M183,71.5c0-4.003,0.971-7.781,2.681-11.122l33.061,32.879C215.372,95.006,211.551,96,207.5,96
		C193.99,96,183,85.009,183,71.5z M232,71.5c0,4.003-0.971,7.781-2.681,11.122l-33.061-32.879C199.628,47.994,203.449,47,207.5,47
		C221.01,47,232,57.991,232,71.5z"/>
	<path d="M434.168,156.688c-3.071-2.914-7.256-4.457-11.483-4.234L383,154.542V93.055c4.765-2.647,8-7.728,8-13.555v-64
		C391,6.953,384.047,0,375.5,0h-336C30.953,0,24,6.953,24,15.5v64c0,5.827,3.235,10.908,8,13.555v260.89
		c-4.765,2.647-8,7.728-8,13.555v80c0,8.547,6.953,15.5,15.5,15.5h336c8.547,0,15.5-6.953,15.5-15.5v-80
		c0-5.827-3.235-10.908-8-13.555V212.458l39.685,2.089c0.269,0.014,0.537,0.021,0.805,0.021c3.949,0,7.803-1.526,10.679-4.255
		c3.07-2.913,4.832-7.012,4.832-11.245v-31.136C439,163.699,437.238,159.601,434.168,156.688z M287,159.595V159.5
		c0-4.142-3.357-7.5-7.5-7.5s-7.5,3.358-7.5,7.5V176h-18.894l0.573-2.293c5.479-2.392,9.321-7.856,9.321-14.207v-20.163
		c6.491-3.01,12.138-7.774,16.239-13.927l13.001-19.501C296.794,99.079,304.415,95,312.626,95H368v60.332L287,159.595z M181.355,192
		l-4.25-17h60.788l-4.25,17H181.355z M168.626,143h77.748c0.545,0,1.085-0.028,1.626-0.05v16.55c0,0.276-0.225,0.5-0.5,0.5h-80
		c-0.275,0-0.5-0.224-0.5-0.5v-16.55C167.541,142.972,168.081,143,168.626,143z M39,15.5c0-0.276,0.225-0.5,0.5-0.5h336
		c0.275,0,0.5,0.224,0.5,0.5v64c0,0.276-0.225,0.5-0.5,0.5h-62.874c-13.237,0-25.524,6.576-32.866,17.589l-13.001,19.501
		c-4.554,6.831-12.175,10.91-20.385,10.91h-77.748c-8.211,0-15.832-4.079-20.386-10.91l-13.001-19.501
		C127.897,86.576,115.611,80,102.374,80H39.5c-0.275,0-0.5-0.224-0.5-0.5V15.5z M376,447.5c0,0.276-0.225,0.5-0.5,0.5h-336
		c-0.275,0-0.5-0.224-0.5-0.5v-80c0-0.276,0.225-0.5,0.5-0.5H56v56.5c0,4.142,3.357,7.5,7.5,7.5h288c4.143,0,7.5-3.358,7.5-7.5V367
		h16.5c0.275,0,0.5,0.224,0.5,0.5V447.5z M344,367v49h-81v-16.5c0-8.547-6.953-15.5-15.5-15.5h-80c-8.547,0-15.5,6.953-15.5,15.5
		V416H71v-49H344z M167,416v-16.5c0-0.276,0.225-0.5,0.5-0.5h80c0.275,0,0.5,0.224,0.5,0.5V416H167z M368,352H47V95h55.374
		c8.21,0,15.831,4.079,20.385,10.91l4.06,6.09H119.5C97.72,112,80,129.72,80,151.5V208h-0.504c-0.011,0-0.023,0-0.034,0H71.5
		c-4.143,0-7.5,3.358-7.5,7.5c0,4.045,3.205,7.334,7.214,7.486l-7.177,71.768c-0.211,2.108,0.48,4.208,1.902,5.779
		C67.361,302.104,69.381,303,71.5,303h32c2.119,0,4.139-0.896,5.561-2.467c1.422-1.571,2.113-3.67,1.902-5.779l-7.177-71.768
		c4.009-0.152,7.214-3.44,7.214-7.486c0-4.142-3.357-7.5-7.5-7.5h-7.958c-0.014,0-0.027,0-0.041,0H95v-56.5
		c0-13.509,10.99-24.5,24.5-24.5h17.392c3.983,5.383,9.19,9.594,15.108,12.337V159.5c0,6.35,3.842,11.814,9.321,14.207l6.903,27.612
		c0.835,3.339,3.835,5.681,7.276,5.681h8.5v8.5c0,4.142,3.357,7.5,7.5,7.5s7.5-3.358,7.5-7.5V207h17v8.5c0,4.142,3.357,7.5,7.5,7.5
		s7.5-3.358,7.5-7.5V207h8.5c3.441,0,6.441-2.342,7.276-5.681l2.58-10.319H272v16.5c0,4.142,3.357,7.5,7.5,7.5s7.5-3.358,7.5-7.5
		v-0.095l81,4.263V352z M95.213,288H79.787l6.5-65h2.425L95.213,288z M424,199.068c0,0.059,0,0.215-0.156,0.363
		c-0.154,0.148-0.314,0.139-0.37,0.136L287,192.384v-17.769l136.474-7.183c0.062-0.002,0.214-0.011,0.37,0.136
		c0.156,0.148,0.156,0.304,0.156,0.363V199.068z"/>
	<path d="M63.5,55h16c4.143,0,7.5-3.358,7.5-7.5S83.643,40,79.5,40h-16c-4.143,0-7.5,3.358-7.5,7.5S59.357,55,63.5,55z"/>
	<path d="M103.5,55h16c4.143,0,7.5-3.358,7.5-7.5s-3.357-7.5-7.5-7.5h-16c-4.143,0-7.5,3.358-7.5,7.5S99.357,55,103.5,55z"/>
	<path d="M295.5,55h16c4.143,0,7.5-3.358,7.5-7.5s-3.357-7.5-7.5-7.5h-16c-4.143,0-7.5,3.358-7.5,7.5S291.357,55,295.5,55z"/>
	<path d="M335.5,55h16c4.143,0,7.5-3.358,7.5-7.5s-3.357-7.5-7.5-7.5h-16c-4.143,0-7.5,3.358-7.5,7.5S331.357,55,335.5,55z"/>
</g>
<g>
</g>
<g>
</g>
<g>
</g>
<g>
</g>
<g>
</g>
<g>
</g>
<g>
</g>
<g>
</g>
<g>
</g>
<g>
</g>
<g>
</g>
<g>
</g>
<g>
</g>
<g>
</g>
<g>
</g>
</svg>
