<svg xmlns="http://www.w3.org/2000/svg" xmlns:xlink="http://www.w3.org/1999/xlink" version="1.1" x="0px" y="0px" viewBox="0 0 82.583 99.834" enable-background="new 0 0 82.583 99.834" xml:space="preserve"><path d="M74.611,95.21H7.972c-1.341,0-2.492-0.953-2.742-2.271c-0.066-0.357-1.578-8.798,4.113-15.664  c4.534-5.469,12.145-8.241,22.62-8.241h18.658c10.476,0,18.085,2.772,22.62,8.241c5.689,6.866,4.178,15.307,4.109,15.664  C77.104,94.257,75.951,95.21,74.611,95.21z M10.568,89.632h61.431c-0.041-2.271-0.575-5.84-3.094-8.847  c-3.43-4.096-9.582-6.174-18.284-6.174H31.963c-8.736,0-14.901,2.094-18.325,6.223C11.124,83.866,10.603,87.391,10.568,89.632z"></path><path d="M58.302,72.351h-5.578V56.787c-0.03-1.693-0.12-17.188,6.379-23.685c2.652-2.656,5.066-9.988,2.811-15.438  c-1.95-4.701-6.912-7.087-14.756-7.087H35.505c-7.843,0-12.808,2.386-14.757,7.087c-2.256,5.45,0.158,12.782,2.812,15.438  c6.497,6.496,6.407,21.991,6.376,23.736v15.512h-5.578V56.787c0.071-4.137-0.646-15.645-4.742-19.741  c-3.835-3.835-7.365-13.447-4.021-21.517C17.584,10.728,22.655,5,35.505,5h11.652c12.85,0,17.918,5.728,19.91,10.532  c3.345,8.07-0.186,17.679-4.021,21.514c-4.096,4.096-4.814,15.604-4.744,19.692V72.351z"></path></svg>