<?xml version="1.0" encoding="iso-8859-1"?>
<!-- Generator: Adobe Illustrator 17.1.0, SVG Export Plug-In . SVG Version: 6.00 Build 0)  -->
<!DOCTYPE svg PUBLIC "-//W3C//DTD SVG 1.1//EN" "http://www.w3.org/Graphics/SVG/1.1/DTD/svg11.dtd">
<svg version="1.1" id="Capa_1" xmlns="http://www.w3.org/2000/svg" xmlns:xlink="http://www.w3.org/1999/xlink" x="0px" y="0px"
	 viewBox="0 0 334.826 334.826" style="enable-background:new 0 0 334.826 334.826;" xml:space="preserve">
<path d="M159.964,263.912c0.26,0.102,0.524,0.19,0.795,0.266c0.71,0.198,1.429,0.293,2.138,0.293c0.08,0,0.159-0.001,0.239-0.003
	c22.789-0.188,44.285-11.335,57.532-29.846c13.283-18.562,16.885-42.586,9.635-64.265c-1.092-3.265-4.147-5.463-7.587-5.463
	c-0.014,0-0.029,0-0.044,0c-13.313,0.073-26.19,3.887-37.251,10.728c-8.51-26.846-28.47-47.982-54.887-58.075
	c-3.232-1.234-6.885-0.254-9.064,2.429c-18.563,22.847-25.105,53.44-17.5,81.839C111.568,230.183,132.498,253.391,159.964,263.912z
	 M216.729,181.258c3.292,15.206,0.059,31.295-9.072,44.053c-9.131,12.76-23.315,21.009-38.771,22.794
	c-3.296-15.204-0.062-31.292,9.069-44.052C187.088,191.293,201.274,183.044,216.729,181.258z M130.314,134.835
	c19.318,9.131,33.768,25.741,40.078,46.34c0.136,0.442,0.574,1.719,1.065,3.131c0.189,0.546,0.434,1.249,0.662,1.914
	c-2.594,2.63-4.997,5.476-7.177,8.521c-9.872,13.796-14.396,30.607-13.093,47.229c-15.786-10.135-27.499-25.902-32.426-44.294
	C113.658,176.142,117.741,153.077,130.314,134.835z M326.826,10.008H8c-4.418,0-8,3.582-8,8v46.664c0,4.418,3.582,8,8,8h11.971
	v244.146c0,4.418,3.582,8,8,8h278.885c4.418,0,8-3.582,8-8V72.672h11.971c4.418,0,8-3.582,8-8V18.008
	C334.826,13.59,331.244,10.008,326.826,10.008z M298.855,308.818H35.971V72.672h262.885V308.818z M318.826,56.672H16V26.008h302.826
	V56.672z"/>
<g>
</g>
<g>
</g>
<g>
</g>
<g>
</g>
<g>
</g>
<g>
</g>
<g>
</g>
<g>
</g>
<g>
</g>
<g>
</g>
<g>
</g>
<g>
</g>
<g>
</g>
<g>
</g>
<g>
</g>
</svg>
