<?xml version='1.0' encoding='iso-8859-1'?>
<svg version="1.1" xmlns="http://www.w3.org/2000/svg" viewBox="0 0 470.001 470.001" xmlns:xlink="http://www.w3.org/1999/xlink" enable-background="new 0 0 470.001 470.001">
  <g>
    <path d="m462.501,437.752h-2.5v-22.5c0-54.05-22.11-103.028-57.753-138.382 1.069-38.603 11.963-73.2 22.51-106.684 9.59-30.443 7.291-58.225-6.648-80.339-13.506-21.428-36.831-35.711-67.724-41.585l1.778-12.541c0.004-0.028 1.406-9.916 1.406-9.916 0.581-4.101-2.271-7.896-6.373-8.479-4.1-0.581-7.896,2.272-8.479,6.373l-.373,2.628c-7.009-0.712-14.286-1.075-21.727-1.075h-103.234c-7.438,0-14.713,0.362-21.721,1.074l-.372-2.628c-0.581-4.101-4.379-6.958-8.478-6.373-4.102,0.581-6.955,4.377-6.374,8.479l1.403,9.9c0,0.002 1.78,12.556 1.78,12.556-30.895,5.873-54.222,20.156-67.729,41.585-13.939,22.115-16.238,49.896-6.648,80.34 10.54,33.462 21.425,68.034 22.507,106.603-8.724,8.648-16.654,18.103-23.624,28.253-5.572-5.589-10.781-11.673-15.866-17.611-15.842-18.502-32.223-37.634-61.27-50.202-3.339-1.442-7.236-0.283-9.24,2.756l-16.513,25.047c-2.28,3.458-1.325,8.109 2.133,10.39 17.741,11.696 26.967,27.315 37.649,45.399 9.369,15.86 19.036,32.225 34.828,46.898-3.882,15.494-5.848,31.462-5.848,47.533v22.5h-2.5c-4.142,0-7.5,3.357-7.5,7.5s3.358,7.5 7.5,7.5h395c4.143,0 7.5-3.357 7.5-7.5s-3.358-7.499-7.5-7.499zm-249.117-397.5h103.234c6.728-7.10543e-15 13.295,0.32 19.619,0.941l-3.516,24.795c-5.188-0.476-10.565-0.736-16.103-0.736h-103.234c-5.538,0-10.914,0.261-16.1,0.736l-1.783-12.577c-0.003-0.019-1.732-12.218-1.732-12.218 6.324-0.622 12.89-0.941 19.615-0.941zm-88.802,57.593c11.124-17.649 30.794-29.562 57.146-34.715l3.13,22.081c0.531,3.744 3.741,6.448 7.417,6.448 0.35,0 0.705-0.024 1.062-0.075 4.102-0.581 6.955-4.377 6.374-8.479l-.318-2.244c4.504-0.39 9.172-0.608 13.992-0.608h103.234c4.82,0 9.488,0.219 13.994,0.609l-.318,2.245c-0.581,4.101 2.271,7.896 6.373,8.479 0.357,0.051 0.712,0.075 1.063,0.075 3.675,0 6.885-2.704 7.416-6.448l3.131-22.08c26.35,5.154 46.02,17.067 57.143,34.714 11.516,18.27 13.255,41.727 5.031,67.835-9.737,30.91-19.762,62.74-22.539,98.306-12.796-10.417-26.93-19.248-42.105-26.186-0.382-0.23-0.785-0.435-1.217-0.599-0.136-0.052-0.274-0.09-0.411-0.133-22.05-9.837-46.248-15.69-71.678-16.657v-15.158h12.5c4.143,0 7.5-3.357 7.5-7.5s-3.357-7.5-7.5-7.5h-40c-4.143,0-7.5,3.357-7.5,7.5s3.357,7.5 7.5,7.5h12.5v15.16c-24.932,0.959-49.448,6.674-72.088,16.788-0.314,0.119-0.609,0.263-0.896,0.417-5.392,2.442-10.682,5.119-15.838,8.055-9.366,5.332-18.258,11.444-26.596,18.229-2.787-35.53-12.803-67.335-22.532-98.221-8.225-26.113-6.485-49.57 5.03-67.838zm140.419,137.407c23.579,0 46.11,4.565 66.766,12.845-11.235,19.229-37.469,32.155-66.766,32.155-29.354,0-55.636-12.975-66.834-32.266 20.873-8.307 43.469-12.734 66.834-12.734zm-175.832,124.263c-16.051-13.853-25.802-30.36-35.233-46.324-9.989-16.911-19.481-32.981-36.202-45.929l8.981-13.623c22.481,11.229 36.531,27.639 50.155,43.551 7.302,8.528 14.854,17.348 23.706,25.091 1.658,1.449 3.87,2.102 6.049,1.771 2.179-0.326 4.104-1.594 5.264-3.467 7.993-12.899 17.403-24.528 27.945-34.772 0.513-0.388 0.978-0.836 1.376-1.34 12.9-12.268 27.47-22.453 43.233-30.327 6.027,10.946 15.811,20.626 28.22,27.761 15.183,8.729 33.281,13.344 52.337,13.344s37.153-4.614 52.337-13.344c12.359-7.107 22.116-16.735 28.148-27.626 58.954,29.598 99.515,90.632 99.515,160.97v22.5h-25.335v-32.5c0-0.168-0.006-0.336-0.017-0.504-1.282-19.053-6.027-37.491-14.103-54.802-1.75-3.754-6.213-5.377-9.968-3.626-3.754,1.751-5.377,6.214-3.626,9.968 7.255,15.551 11.531,32.109 12.713,49.219v32.245h-319.663v-22.5c-2.84217e-14-16.29 2.186-32.46 6.498-48.061 0.771-2.793-0.135-5.781-2.33-7.675z"/>
    <path d="m347.991,302.58c11.17,8.253 21.048,18.098 29.359,29.261 1.473,1.977 3.732,3.021 6.021,3.021 1.558,0 3.128-0.483 4.474-1.484 3.322-2.474 4.01-7.173 1.536-10.495-9.193-12.346-20.12-23.235-32.477-32.366-3.329-2.46-8.027-1.756-10.489,1.575-2.46,3.33-1.755,8.026 1.576,10.488z"/>
  </g>
</svg>
