<?xml version="1.0" encoding="iso-8859-1"?>
<!-- Generator: Adobe Illustrator 17.1.0, SVG Export Plug-In . SVG Version: 6.00 Build 0)  -->
<!DOCTYPE svg PUBLIC "-//W3C//DTD SVG 1.1//EN" "http://www.w3.org/Graphics/SVG/1.1/DTD/svg11.dtd">
<svg version="1.1" id="Capa_1" xmlns="http://www.w3.org/2000/svg" xmlns:xlink="http://www.w3.org/1999/xlink" x="0px" y="0px"
	 viewBox="0 0 477.779 477.779" style="enable-background:new 0 0 477.779 477.779;" xml:space="preserve">
<path d="M355.866,195.079c0-52.621-34.928-97.233-82.816-111.883L273.036,35.2c0.284-9.291-3.114-18.085-9.577-24.774
	C256.963,3.702,248.238,0,238.89,0s-18.073,3.702-24.569,10.426c-6.463,6.689-9.861,15.483-9.577,24.774l-0.014,47.996
	c-47.888,14.65-82.816,59.262-82.816,111.883c0,52.622,34.927,97.233,82.815,111.884l0.015,135.615
	c-0.284,9.292,3.114,18.086,9.577,24.775c6.496,6.724,15.221,10.426,24.569,10.426s18.073-3.702,24.569-10.426
	c6.463-6.689,9.861-15.483,9.577-24.775l0.011-85.176c0.001-4.143-3.356-7.5-7.499-7.501c-0.001,0-0.001,0-0.001,0
	c-4.142,0-7.499,3.357-7.5,7.499l-0.011,85.298c0,0.087,0.001,0.173,0.005,0.259c0.18,5.241-1.727,10.203-5.37,13.975
	c-3.644,3.771-8.537,5.848-13.781,5.848s-10.138-2.077-13.781-5.848c-3.644-3.771-5.55-8.733-5.37-13.975
	c0.004-0.086,0.005-0.172,0.005-0.259l-0.015-132.22c6.237,1.032,12.636,1.578,19.161,1.578s12.924-0.546,19.161-1.578l-0.001,7.906
	c-0.001,4.143,3.356,7.5,7.499,7.501c0.001,0,0.001,0,0.001,0c4.142,0,7.499-3.357,7.5-7.499l0.001-11.423
	C320.939,292.313,355.866,247.701,355.866,195.079z M219.738,34.822c-0.18-5.241,1.727-10.203,5.37-13.975
	C228.752,17.077,233.646,15,238.89,15s10.138,2.077,13.781,5.848c3.644,3.771,5.55,8.733,5.37,13.975
	c-0.004,0.086-0.005,0.173-0.005,0.26l0.013,44.598c-6.237-1.032-12.635-1.578-19.159-1.578s-12.923,0.546-19.159,1.578
	l0.013-44.598C219.743,34.995,219.742,34.908,219.738,34.822z M238.89,297.057c-56.23,0-101.977-45.747-101.977-101.978
	S182.659,93.103,238.89,93.103s101.977,45.746,101.977,101.977S295.12,297.057,238.89,297.057z M320.338,234.508
	c5.796-11.925,9.051-25.304,9.051-39.429c0-34.808-19.756-65.083-48.64-80.217c-1.019-0.929-2.292-1.58-3.706-1.834
	c-11.209-5.233-23.658-8.233-36.777-8.43c-0.488-0.1-0.993-0.152-1.511-0.152c-0.523,0-1.033,0.054-1.525,0.156
	c-13.015,0.235-25.365,3.232-36.493,8.427c-1.414,0.255-2.687,0.906-3.706,1.834c-28.885,15.134-48.64,45.409-48.64,80.217
	c0,14.126,3.255,27.504,9.052,39.429c0.156,0.396,0.345,0.772,0.563,1.132c8.728,17.334,22.864,31.495,40.18,40.252
	c0.365,0.222,0.748,0.415,1.151,0.573c11.957,5.834,25.379,9.114,39.554,9.114s27.598-3.279,39.554-9.114
	c0.402-0.158,0.786-0.351,1.151-0.573c17.317-8.758,31.453-22.918,40.18-40.252C319.993,235.281,320.182,234.904,320.338,234.508z
	 M169.373,165.629h25.2v21.95h-30.809C164.529,179.865,166.456,172.488,169.373,165.629z M314.015,187.579h-30.809v-21.95h25.2
	C311.323,172.488,313.251,179.865,314.015,187.579z M268.206,187.579h-21.951v-21.95h21.951V187.579z M246.255,150.629v-30.685
	c7.712,0.75,15.09,2.659,21.951,5.561v25.124H246.255z M231.255,150.629h-21.682v-25.124c6.782-2.868,14.066-4.772,21.682-5.541
	V150.629z M231.255,165.629v21.95h-21.682v-21.95H231.255z M163.764,202.579h30.809v21.683h-25.311
	C166.408,217.478,164.519,210.193,163.764,202.579z M209.573,202.579h21.682v21.683h-21.682V202.579z M231.255,239.262v30.933
	c-7.615-0.769-14.9-2.672-21.682-5.541v-25.392H231.255z M246.255,239.262h21.951v25.392c-6.861,2.902-14.239,4.811-21.951,5.561
	V239.262z M246.255,224.262v-21.683h21.951v21.683H246.255z M283.206,202.579h30.809c-0.755,7.614-2.644,14.898-5.498,21.683
	h-25.311V202.579z M299.864,150.629h-16.658V134.01C289.584,138.651,295.209,144.261,299.864,150.629z M194.573,134.01v16.619
	h-16.658C182.57,144.261,188.195,138.651,194.573,134.01z M177.724,239.262h16.849v16.888
	C188.106,251.443,182.416,245.739,177.724,239.262z M283.206,256.149v-16.888h16.849
	C295.363,245.739,289.673,251.443,283.206,256.149z"/>
<g>
</g>
<g>
</g>
<g>
</g>
<g>
</g>
<g>
</g>
<g>
</g>
<g>
</g>
<g>
</g>
<g>
</g>
<g>
</g>
<g>
</g>
<g>
</g>
<g>
</g>
<g>
</g>
<g>
</g>
</svg>
